<svg width="44" height="44" viewBox="0 0 44 44" fill="none" xmlns="http://www.w3.org/2000/svg">
<g clip-path="url(#clip0_46_83)">
<path d="M31.8571 0H12.1421C5.44694 0 0 5.4472 0 12.1423V31.8574C0 38.5528 5.44694 43.9997 12.1421 43.9997H31.8571C38.5528 43.9997 43.9997 38.5525 43.9997 31.8574V12.1423C44 5.4472 38.5528 0 31.8571 0ZM40.0961 31.8574C40.0961 36.4002 36.4002 40.0959 31.8574 40.0959H12.1421C7.59953 40.0961 3.90387 36.4002 3.90387 31.8574V12.1423C3.90387 7.59979 7.59953 3.90387 12.1421 3.90387H31.8571C36.3999 3.90387 40.0959 7.59979 40.0959 12.1423V31.8574H40.0961Z" fill="white"/>
<path d="M21.9999 10.6628C15.7482 10.6628 10.6622 15.7488 10.6622 22.0005C10.6622 28.2519 15.7482 33.3376 21.9999 33.3376C28.2515 33.3376 33.3375 28.2519 33.3375 22.0005C33.3375 15.7488 28.2515 10.6628 21.9999 10.6628ZM21.9999 29.4334C17.901 29.4334 14.5661 26.099 14.5661 22.0002C14.5661 17.9011 17.9008 14.5665 21.9999 14.5665C26.0989 14.5665 29.4336 17.9011 29.4336 22.0002C29.4336 26.099 26.0987 29.4334 21.9999 29.4334Z" fill="white"/>
<path d="M33.813 7.35254C33.0609 7.35254 32.322 7.65704 31.7908 8.19057C31.257 8.7215 30.9502 9.46063 30.9502 10.2154C30.9502 10.9678 31.2573 11.7067 31.7908 12.2402C32.3218 12.7711 33.0609 13.0782 33.813 13.0782C34.5678 13.0782 35.3043 12.7711 35.8378 12.2402C36.3714 11.7067 36.6759 10.9675 36.6759 10.2154C36.6759 9.46063 36.3714 8.7215 35.8378 8.19057C35.3069 7.65704 34.5678 7.35254 33.813 7.35254Z" fill="white"/>
</g>
<defs>
<clipPath id="clip0_46_83">
<rect width="44" height="44" fill="white"/>
</clipPath>
</defs>
</svg>
