<svg width="44" height="44" viewBox="0 0 44 44" fill="none" xmlns="http://www.w3.org/2000/svg">
<path d="M11.9166 14.6667C13.4354 14.6667 14.6666 13.4355 14.6666 11.9167C14.6666 10.398 13.4354 9.16675 11.9166 9.16675C10.3978 9.16675 9.16663 10.398 9.16663 11.9167C9.16663 13.4355 10.3978 14.6667 11.9166 14.6667Z" fill="white"/>
<path d="M9.16663 18.3333C9.16663 17.3208 9.98745 16.5 11 16.5H12.8333C13.8458 16.5 14.6666 17.3208 14.6666 18.3333V33C14.6666 34.0125 13.8458 34.8333 12.8333 34.8333H11C9.98745 34.8333 9.16663 34.0125 9.16663 33V18.3333Z" fill="white"/>
<path d="M20.1667 34.8333H22C23.0126 34.8333 23.8334 34.0125 23.8334 33V24.75C23.8334 22 29.3334 20.1667 29.3334 23.8333V33.0007C29.3334 34.0133 30.1542 34.8333 31.1667 34.8333H33C34.0126 34.8333 34.8334 34.0125 34.8334 33V22C34.8334 18.3333 32.0834 16.5 28.4167 16.5C24.75 16.5 23.8334 19.25 23.8334 19.25V18.3333C23.8334 17.3208 23.0126 16.5 22 16.5H20.1667C19.1542 16.5 18.3334 17.3208 18.3334 18.3333V33C18.3334 34.0125 19.1542 34.8333 20.1667 34.8333Z" fill="white"/>
<path fill-rule="evenodd" clip-rule="evenodd" d="M36.6667 1.83325C39.7044 1.83325 42.1667 4.29569 42.1667 7.33325V36.6666C42.1667 39.7042 39.7044 42.1666 36.6667 42.1666H7.33337C4.29582 42.1666 1.83337 39.7042 1.83337 36.6666V7.33325C1.83337 4.29569 4.29582 1.83325 7.33337 1.83325H36.6667ZM36.6667 5.49992C37.6793 5.49992 38.5 6.32074 38.5 7.33325V36.6666C38.5 37.6791 37.6793 38.4999 36.6667 38.4999H7.33337C6.32086 38.4999 5.50004 37.6791 5.50004 36.6666V7.33325C5.50004 6.32074 6.32086 5.49992 7.33337 5.49992H36.6667Z" fill="white"/>
</svg>
