<svg width="44" height="44" viewBox="0 0 44 44" fill="none" xmlns="http://www.w3.org/2000/svg">
<path fill-rule="evenodd" clip-rule="evenodd" d="M42.3715 8.23998C42.9543 5.39874 40.1636 3.03761 37.4581 4.08292L4.29461 16.8961C1.27331 18.0634 1.13868 22.2883 4.07952 23.6455L11.3016 26.9789L14.7373 39.0035C14.9157 39.6281 15.4114 40.1118 16.0402 40.2748C16.669 40.4376 17.3371 40.2557 17.7964 39.7963L23.0887 34.504L30.5021 40.0641C32.6541 41.678 35.7535 40.5025 36.294 37.8674L42.3715 8.23998ZM5.61608 20.3164L38.7796 7.50319L32.7021 37.1308L24.0167 30.6166C23.2868 30.0691 22.2655 30.1417 21.6203 30.7869L19.3536 33.0536L20.0347 29.3079L33.3797 15.963C34.0293 15.3135 34.0978 14.2837 33.5403 13.5538C32.9828 12.8239 31.9713 12.6191 31.1738 13.0748L12.744 23.6061L5.61608 20.3164ZM14.9911 26.5451L16.1028 30.4362L16.5296 28.0886C16.5963 27.7217 16.7733 27.3839 17.037 27.1202L21.1068 23.0506L14.9911 26.5451Z" fill="white"/>
</svg>
