<svg width="44" height="44" viewBox="0 0 44 44" fill="none" xmlns="http://www.w3.org/2000/svg">
<g clip-path="url(#clip0_46_90)">
<path d="M34.0285 24.1231C32.0082 24.1231 30.1143 23.2669 28.3928 21.8736L28.8108 19.9009L28.8255 19.8239C29.205 17.7284 30.382 14.2139 34.0303 14.2139C36.7657 14.2139 38.9858 16.4359 38.9858 19.1694C38.984 21.8993 36.7638 24.1231 34.0285 24.1231ZM34.0285 9.19977C29.3737 9.19977 25.7602 12.2229 24.2935 17.2041C22.0568 13.8418 20.3555 9.80477 19.3673 6.4021H14.3513V19.4408C14.3477 22.0184 12.2595 24.1084 9.68183 24.1121C7.106 24.1084 5.01967 22.0166 5.016 19.4408V6.4021H0V19.4408C0 24.7831 4.345 29.1629 9.68183 29.1629C15.0223 29.1629 19.3673 24.7831 19.3673 19.4408V17.2591C20.3372 19.2886 21.5343 21.3456 22.9863 23.1643L19.9192 37.5981H25.047L27.2708 27.1298C29.2197 28.3746 31.46 29.1629 34.0285 29.1629C39.5285 29.1629 44 24.6676 44 19.1713C44 13.6713 39.5285 9.19977 34.0285 9.19977Z" fill="white"/>
</g>
<defs>
<clipPath id="clip0_46_90">
<rect width="44" height="44" fill="white"/>
</clipPath>
</defs>
</svg>
